<?xml version="1.0" encoding="UTF-8" standalone="no"?>
<svg
   xmlns:dc="http://purl.org/dc/elements/1.1/"
   xmlns:cc="http://creativecommons.org/ns#"
   xmlns:rdf="http://www.w3.org/1999/02/22-rdf-syntax-ns#"
   xmlns:svg="http://www.w3.org/2000/svg"
   xmlns="http://www.w3.org/2000/svg"
   xmlns:sodipodi="http://sodipodi.sourceforge.net/DTD/sodipodi-0.dtd"
   xmlns:inkscape="http://www.inkscape.org/namespaces/inkscape"
   width="4096"
   height="1024"
   viewBox="0 0 4096 1024"
   id="svg2"
   version="1.1"
   inkscape:version="0.91 r13725"
   sodipodi:docname="header_ion_engine.svg">
  <sodipodi:namedview
     pagecolor="#ffffff"
     bordercolor="#666666"
     borderopacity="1"
     objecttolerance="10"
     gridtolerance="10"
     guidetolerance="10"
     inkscape:pageopacity="0"
     inkscape:pageshadow="2"
     inkscape:window-width="1920"
     inkscape:window-height="1026"
     id="namedview7"
     showgrid="false"
     inkscape:zoom="0.30078125"
     inkscape:cx="1930.0198"
     inkscape:cy="422.23377"
     inkscape:window-x="0"
     inkscape:window-y="0"
     inkscape:window-maximized="1"
     inkscape:current-layer="svg2" />
  <defs
     id="defs4" />
  <metadata
     id="metadata7">
    <rdf:RDF>
      <cc:Work
         rdf:about="">
        <dc:format>image/svg+xml</dc:format>
        <dc:type
           rdf:resource="http://purl.org/dc/dcmitype/StillImage" />
        <dc:title></dc:title>
      </cc:Work>
    </rdf:RDF>
  </metadata>
  <g
     id="layer1"
     transform="translate(0,-28.362161)">
    <path
       style="fill:#000000"
       d="m 830.23485,1040.8648 c -18.02345,-3.2672 -35.18491,-10.9787 -50.12089,-22.522 -23.32374,-18.0258 -38.30541,-44.81639 -42.15217,-75.37761 -3.88263,-30.84626 6.84795,-64.2682 28.29135,-88.11744 l 4.50857,-5.01442 -32.94849,-57.08522 -32.94849,-57.08522 -12.73352,4.30359 c -28.273,9.55551 -59.01307,13.20145 -87.27526,10.35132 -89.27247,-9.00278 -162.32582,-71.42991 -184.40657,-157.5831 -1.88968,-7.37306 -3.7258,-15.87312 -4.08027,-18.88905 l -0.64447,-5.48349 -66.16549,0 -66.16548,0 -2.30888,7.25 c -2.93176,9.2059 -10.06892,23.14965 -15.91466,31.0922 -16.98207,23.07342 -42.22408,38.83616 -70.81624,44.22224 -11.98765,2.25819 -36.4498,1.50453 -47.39103,-1.46007 C 98.428661,636.31582 65.104384,595.83879 62.331435,546.66975 59.342747,493.67528 94.180023,445.51878 145.52348,431.67116 154.60323,429.2223 157.16293,428.97512 174,428.9213 c 16.38601,-0.0524 19.52843,0.21184 27.5,2.31224 25.09912,6.61329 47.51275,21.39953 62.41317,41.17388 6.75962,8.97068 14.82712,24.42259 17.60108,33.71182 l 1.86849,6.25707 65.94208,-0.25707 65.94208,-0.25708 2.23093,-11 c 2.81439,-13.87681 5.81579,-24.52981 10.00092,-35.49673 28.57514,-74.8796 96.86079,-126.84116 177.3572,-134.95891 28.14712,-2.83853 59.12906,0.83866 87.30818,10.36245 l 12.76645,4.31472 32.94113,-57.07295 32.94113,-57.07295 -4.97439,-5.44276 C 744.89632,202.58099 733.99227,168.0763 737.98703,137.36216 745.43507,80.097077 792.44501,38.362162 849.5,38.362162 c 35.44304,0 68.49749,16.356051 89.68477,44.377946 33.10903,43.789392 29.6594,105.309532 -8.12732,144.941372 -17.07749,17.91139 -38.81012,29.54449 -63.05745,33.75354 -10.56338,1.83368 -28.72731,1.62324 -39.39128,-0.45638 -4.89021,-0.95365 -9.22354,-1.36999 -9.62963,-0.9252 C 817.60365,261.55997 754,372.24532 754,373.13238 c 0,0.48431 2.86058,3.20148 6.35683,6.03815 20.41205,16.56121 41.23467,43.23974 53.50157,68.5477 14.65543,30.2358 21.1416,58.60568 21.1416,92.47138 0,31.3284 -4.77156,55.07031 -16.71572,83.17255 -12.31041,28.96399 -35.03333,59.61301 -58.03428,78.27754 -3.4375,2.78942 -6.25,5.46094 -6.25,5.93672 0,0.87084 63.61734,111.58605 64.98446,113.09446 0.40314,0.44479 4.73405,0.025 9.62426,-0.93285 11.51669,-2.25581 30.0014,-2.25171 41.70327,0.009 47.80953,9.23745 83.64011,47.0014 90.75354,95.65049 1.74352,11.92396 0.67289,29.98806 -2.51679,42.46439 -4.88712,19.11585 -17.74198,41.05689 -31.53747,53.82909 -22.01088,20.3782 -48.78063,30.821 -78.39226,30.5807 -6.11546,-0.05 -14.38833,-0.6829 -18.38416,-1.4072 z M 656.1157,695.44783 c 14.58331,-3.14224 24.00828,-6.5181 39.3843,-14.10679 16.51488,-8.15075 28.30018,-16.65576 41.5,-29.94899 32.29064,-32.51913 49.2577,-79.05741 45.12249,-123.76468 -2.0955,-22.65529 -6.37273,-37.92025 -16.18576,-57.76521 -7.81525,-15.80484 -17.07085,-28.60632 -29.99185,-41.48195 -17.27593,-17.21525 -36.80408,-29.43738 -59.79712,-37.42538 -19.13892,-6.64905 -27.94649,-8.01603 -51.64776,-8.01603 -22.67531,0 -31.53379,1.2571 -49.10406,6.96833 -12.29765,3.99737 -34.87526,15.62238 -44.89594,23.11653 -19.72349,14.75057 -36.54372,34.91738 -47.40646,56.8385 -19.87933,40.1167 -22.07333,84.83831 -6.22531,126.8939 18.98852,50.38948 63.16522,87.92602 115.98401,98.55055 14.06783,2.82976 14.91801,2.89112 35.14776,2.53697 13.98079,-0.24476 20.84894,-0.83 28.1157,-2.39575 z M 602,650.39714 c -44.56117,-9.56385 -78.1753,-43.10293 -87.59205,-87.39647 -9.2053,-43.29896 9.99085,-90.60809 46.85644,-115.47825 13.64989,-9.20845 26.95974,-14.63526 43.5258,-17.74673 12.25494,-2.30174 35.39822,-1.5198 47.20981,1.59508 32.9262,8.6831 58.92112,30.06558 73.67616,60.60334 7.09549,14.68518 10.28237,27.27141 10.98602,43.38805 1.41328,32.37018 -9.93694,61.37895 -33.09487,84.58357 -16.02123,16.05353 -36.00524,26.57699 -58.61404,30.86581 -11.27711,2.13923 -31.98595,1.93944 -42.95327,-0.4144 z"
       id="path3401" />
  </g>
  <text
     xml:space="preserve"
     style="font-style:normal;font-weight:normal;font-size:40px;line-height:125%;font-family:sans-serif;letter-spacing:0px;word-spacing:0px;fill:#000000;fill-opacity:1;stroke:none;stroke-width:1px;stroke-linecap:butt;stroke-linejoin:miter;stroke-opacity:1"
     x="1012.9297"
     y="634.79376"
     id="text4135"
     sodipodi:linespacing="125%"><tspan
       sodipodi:role="line"
       id="tspan4137"
       x="1012.9297"
       y="634.79376"
       style="font-style:normal;font-variant:normal;font-weight:600;font-stretch:normal;font-size:462.5px;font-family:Conthrax;-inkscape-font-specification:'Conthrax Semi-Bold'">ionEngine</tspan></text>
</svg>
